<svg width="24" height="24" viewBox="0 0 24 24" fill="none" xmlns="http://www.w3.org/2000/svg">
<path d="M8.17656 0.705078H16.1569C16.4222 0.705078 16.6257 0.705078 16.804 0.722228C18.0708 0.84685 19.1078 1.6083 19.548 2.63385H4.78548C5.22565 1.6083 6.26264 0.84685 7.52944 0.722228C7.70551 0.705078 7.90902 0.705078 8.17656 0.705078ZM5.66126 3.81833C4.07205 3.81833 2.76866 4.77872 2.3342 6.05237L2.30676 6.13241C2.7618 5.99521 3.23628 5.90374 3.71533 5.84315C4.95011 5.68423 6.51189 5.68423 8.32519 5.68423H16.2049C18.0182 5.68423 19.5789 5.68423 20.8148 5.84315C21.295 5.90489 21.7683 5.99407 22.2234 6.13241L22.1971 6.05237C21.7626 4.77872 20.4592 3.81833 18.8689 3.81833H5.66126Z" fill="#D9D9D9"/>
<path fill-rule="evenodd" clip-rule="evenodd" d="M8.36193 7.04102H15.9719C19.8294 7.04102 21.7593 7.04102 22.8432 8.16947C23.9271 9.29792 23.671 11.0403 23.161 14.5263L22.6786 17.8328C22.2784 20.5665 22.0783 21.9339 21.0528 22.7525C20.0272 23.5711 18.5146 23.5711 15.4882 23.5711H8.84555C5.82033 23.5711 4.30658 23.5711 3.28103 22.7525C2.25547 21.9339 2.05539 20.5665 1.65523 17.8328L1.17275 14.5275C0.661685 11.0403 0.406725 9.29792 1.49059 8.16947C2.57446 7.04102 4.50437 7.04102 8.36193 7.04102ZM7.59362 18.9978C7.59362 18.5245 8.02008 18.1403 8.546 18.1403H15.7878C16.3137 18.1403 16.7402 18.5245 16.7402 18.9978C16.7402 19.4712 16.3137 19.8553 15.7878 19.8553H8.546C8.02008 19.8553 7.59362 19.4712 7.59362 18.9978Z" fill="#D9D9D9"/>
</svg>
