<svg width="66" height="66" viewBox="0 0 66 66" fill="none" xmlns="http://www.w3.org/2000/svg">
<rect x="3" y="3" width="60" height="60" rx="30" fill="#FFAE42"/>
<rect x="3" y="3" width="60" height="60" rx="30" stroke="white" stroke-width="6"/>
<path d="M35.3073 15.3868L50.6431 41.9482C50.8769 42.3532 51 42.8127 51 43.2804C51 43.748 50.8769 44.2075 50.6431 44.6125C50.4092 45.0175 50.0729 45.3539 49.6679 45.5877C49.2629 45.8216 48.8034 45.9447 48.3358 45.9447H17.6642C17.1966 45.9447 16.7371 45.8216 16.3321 45.5877C15.9271 45.3539 15.5908 45.0175 15.3569 44.6125C15.1231 44.2075 15 43.748 15 43.2804C15 42.8127 15.1231 42.3532 15.3569 41.9482L30.6927 15.3868C31.7176 13.6106 34.2806 13.6106 35.3073 15.3868ZM33 18.4952L19.2024 42.3923H46.7976L33 18.4952ZM33 36.4384C33.4711 36.4384 33.9229 36.6256 34.256 36.9587C34.5891 37.2918 34.7762 37.7436 34.7762 38.2146C34.7762 38.6857 34.5891 39.1375 34.256 39.4706C33.9229 39.8037 33.4711 39.9908 33 39.9908C32.5289 39.9908 32.0771 39.8037 31.744 39.4706C31.4109 39.1375 31.2238 38.6857 31.2238 38.2146C31.2238 37.7436 31.4109 37.2918 31.744 36.9587C32.0771 36.6256 32.5289 36.4384 33 36.4384ZM33 24.005C33.4711 24.005 33.9229 24.1921 34.256 24.5252C34.5891 24.8583 34.7762 25.3101 34.7762 25.7812V32.886C34.7762 33.3571 34.5891 33.8089 34.256 34.142C33.9229 34.4751 33.4711 34.6622 33 34.6622C32.5289 34.6622 32.0771 34.4751 31.744 34.142C31.4109 33.8089 31.2238 33.3571 31.2238 32.886V25.7812C31.2238 25.3101 31.4109 24.8583 31.744 24.5252C32.0771 24.1921 32.5289 24.005 33 24.005Z" fill="white"/>
</svg>
