<svg width="12" height="11" viewBox="0 0 12 11" fill="none" xmlns="http://www.w3.org/2000/svg">
<path d="M6.95494 1.04613L11.8255 9.48183C11.8997 9.61046 11.9388 9.75637 11.9388 9.9049C11.9388 10.0534 11.8997 10.1993 11.8255 10.328C11.7512 10.4566 11.6444 10.5634 11.5158 10.6377C11.3871 10.712 11.2412 10.7511 11.0927 10.7511H1.35164C1.20311 10.7511 1.05719 10.712 0.928561 10.6377C0.799931 10.5634 0.693116 10.4566 0.618852 10.328C0.544588 10.1993 0.505492 10.0534 0.505493 9.9049C0.505494 9.75637 0.544592 9.61046 0.618858 9.48183L5.48938 1.04613C5.81487 0.482019 6.62888 0.482019 6.95494 1.04613ZM6.22216 2.03332L1.84016 9.62285H10.6042L6.22216 2.03332ZM6.22216 7.73196C6.37177 7.73196 6.51525 7.79139 6.62104 7.89718C6.72684 8.00297 6.78627 8.14646 6.78627 8.29607C6.78627 8.44568 6.72684 8.58916 6.62104 8.69495C6.51525 8.80075 6.37177 8.86018 6.22216 8.86018C6.07255 8.86018 5.92906 8.80075 5.82327 8.69495C5.71748 8.58916 5.65805 8.44568 5.65805 8.29607C5.65805 8.14646 5.71748 8.00297 5.82327 7.89718C5.92906 7.79139 6.07255 7.73196 6.22216 7.73196ZM6.22216 3.78319C6.37177 3.78319 6.51525 3.84262 6.62104 3.94841C6.72684 4.0542 6.78627 4.19769 6.78627 4.3473V6.60374C6.78627 6.75335 6.72684 6.89683 6.62104 7.00262C6.51525 7.10842 6.37177 7.16785 6.22216 7.16785C6.07255 7.16785 5.92906 7.10842 5.82327 7.00262C5.71748 6.89683 5.65805 6.75335 5.65805 6.60374V4.3473C5.65805 4.19769 5.71748 4.0542 5.82327 3.94841C5.92906 3.84262 6.07255 3.78319 6.22216 3.78319Z" fill="white"/>
</svg>
