<svg width="43" height="27" viewBox="0 0 43 27" fill="none" xmlns="http://www.w3.org/2000/svg">
<path d="M13.7481 19.0922H14.4231V22.5551C14.4231 22.9395 14.3376 23.2594 14.1665 23.5148C13.9954 23.7703 13.7681 23.9625 13.4845 24.0914C13.2032 24.218 12.8974 24.2813 12.5669 24.2813C12.22 24.2813 11.906 24.218 11.6247 24.0914C11.3458 23.9625 11.1243 23.7703 10.9603 23.5148C10.7985 23.2594 10.7177 22.9395 10.7177 22.5551V19.0922H11.3892V22.5551C11.3892 22.8223 11.4384 23.0426 11.5368 23.216C11.6353 23.3895 11.7724 23.5184 11.9481 23.6027C12.1263 23.6871 12.3325 23.7293 12.5669 23.7293C12.8036 23.7293 13.0099 23.6871 13.1856 23.6027C13.3638 23.5184 13.5021 23.3895 13.6005 23.216C13.6989 23.0426 13.7481 22.8223 13.7481 22.5551V19.0922ZM16.0403 21.1383V25.6734H15.3864V20.407H15.9841L16.0403 21.1383ZM18.6032 22.2773V22.3512C18.6032 22.6277 18.5704 22.8844 18.5048 23.1211C18.4392 23.3555 18.3431 23.5594 18.2165 23.7328C18.0923 23.9062 17.9388 24.041 17.756 24.1371C17.5731 24.2332 17.3634 24.2813 17.1267 24.2813C16.8853 24.2813 16.672 24.2414 16.4868 24.1617C16.3017 24.082 16.1446 23.966 16.0157 23.8137C15.8868 23.6613 15.7837 23.4785 15.7063 23.2652C15.6313 23.052 15.5798 22.8117 15.5517 22.5445V22.1508C15.5798 21.8695 15.6325 21.6176 15.7099 21.3949C15.7872 21.1723 15.8892 20.9824 16.0157 20.8254C16.1446 20.666 16.3005 20.5453 16.4833 20.4633C16.6661 20.3789 16.8771 20.3367 17.1161 20.3367C17.3552 20.3367 17.5673 20.3836 17.7524 20.4773C17.9376 20.5687 18.0935 20.7 18.22 20.8711C18.3466 21.0422 18.4415 21.2473 18.5048 21.4863C18.5704 21.723 18.6032 21.9867 18.6032 22.2773ZM17.9493 22.3512V22.2773C17.9493 22.0875 17.9294 21.9094 17.8896 21.743C17.8497 21.5742 17.7876 21.4266 17.7032 21.3C17.6212 21.1711 17.5157 21.0703 17.3868 20.9977C17.2579 20.9227 17.1044 20.8852 16.9263 20.8852C16.7622 20.8852 16.6192 20.9133 16.4974 20.9695C16.3778 21.0258 16.2759 21.102 16.1915 21.198C16.1071 21.2918 16.038 21.3996 15.9841 21.5215C15.9325 21.641 15.8938 21.7652 15.8681 21.8941V22.8047C15.9149 22.9687 15.9806 23.1234 16.0649 23.2687C16.1493 23.4117 16.2618 23.5277 16.4024 23.6168C16.5431 23.7035 16.72 23.7469 16.9333 23.7469C17.1091 23.7469 17.2603 23.7105 17.3868 23.6379C17.5157 23.5629 17.6212 23.4609 17.7032 23.332C17.7876 23.2031 17.8497 23.0555 17.8896 22.8891C17.9294 22.7203 17.9493 22.541 17.9493 22.3512ZM20.1396 18.8109V24.2109H19.4856V18.8109H20.1396ZM21.0114 22.3512V22.2703C21.0114 21.9961 21.0513 21.7418 21.131 21.5074C21.2106 21.2707 21.3255 21.0656 21.4755 20.8922C21.6255 20.7164 21.8071 20.5805 22.0204 20.4844C22.2337 20.3859 22.4728 20.3367 22.7376 20.3367C23.0048 20.3367 23.245 20.3859 23.4583 20.4844C23.6739 20.5805 23.8567 20.7164 24.0067 20.8922C24.1591 21.0656 24.2751 21.2707 24.3548 21.5074C24.4345 21.7418 24.4743 21.9961 24.4743 22.2703V22.3512C24.4743 22.6254 24.4345 22.8797 24.3548 23.1141C24.2751 23.3484 24.1591 23.5535 24.0067 23.7293C23.8567 23.9027 23.6751 24.0387 23.4618 24.1371C23.2509 24.2332 23.0118 24.2813 22.7446 24.2813C22.4774 24.2813 22.2372 24.2332 22.0239 24.1371C21.8106 24.0387 21.6278 23.9027 21.4755 23.7293C21.3255 23.5535 21.2106 23.3484 21.131 23.1141C21.0513 22.8797 21.0114 22.6254 21.0114 22.3512ZM21.6618 22.2703V22.3512C21.6618 22.541 21.6841 22.7203 21.7286 22.8891C21.7731 23.0555 21.8399 23.2031 21.929 23.332C22.0204 23.4609 22.1341 23.5629 22.27 23.6379C22.406 23.7105 22.5642 23.7469 22.7446 23.7469C22.9228 23.7469 23.0786 23.7105 23.2122 23.6379C23.3481 23.5629 23.4606 23.4609 23.5497 23.332C23.6388 23.2031 23.7056 23.0555 23.7501 22.8891C23.797 22.7203 23.8204 22.541 23.8204 22.3512V22.2703C23.8204 22.0828 23.797 21.9059 23.7501 21.7395C23.7056 21.5707 23.6376 21.4219 23.5462 21.293C23.4571 21.1617 23.3446 21.0586 23.2087 20.9836C23.0751 20.9086 22.9181 20.8711 22.7376 20.8711C22.5595 20.8711 22.4024 20.9086 22.2665 20.9836C22.1329 21.0586 22.0204 21.1617 21.929 21.293C21.8399 21.4219 21.7731 21.5707 21.7286 21.7395C21.6841 21.9059 21.6618 22.0828 21.6618 22.2703ZM27.5329 23.5605V21.6023C27.5329 21.4523 27.5024 21.3223 27.4415 21.2121C27.3829 21.0996 27.2938 21.0129 27.1743 20.952C27.0548 20.891 26.9071 20.8605 26.7313 20.8605C26.5673 20.8605 26.4231 20.8887 26.2989 20.9449C26.1771 21.0012 26.081 21.075 26.0106 21.1664C25.9427 21.2578 25.9087 21.3562 25.9087 21.4617H25.2583C25.2583 21.3258 25.2935 21.191 25.3638 21.0574C25.4341 20.9238 25.5349 20.8031 25.6661 20.6953C25.7997 20.5852 25.9591 20.4984 26.1442 20.4352C26.3317 20.3695 26.5403 20.3367 26.77 20.3367C27.0466 20.3367 27.2903 20.3836 27.5013 20.4773C27.7146 20.5711 27.881 20.7129 28.0005 20.9027C28.1224 21.0902 28.1833 21.3258 28.1833 21.6094V23.3812C28.1833 23.5078 28.1938 23.6426 28.2149 23.7855C28.2384 23.9285 28.2724 24.0516 28.3169 24.1547V24.2109H27.6384C27.6056 24.1359 27.5798 24.0363 27.561 23.9121C27.5423 23.7855 27.5329 23.6684 27.5329 23.5605ZM27.6454 21.9047L27.6524 22.3617H26.995C26.8099 22.3617 26.6446 22.377 26.4993 22.4074C26.354 22.4355 26.2321 22.4789 26.1337 22.5375C26.0353 22.5961 25.9603 22.6699 25.9087 22.759C25.8571 22.8457 25.8313 22.9477 25.8313 23.0648C25.8313 23.1844 25.8583 23.2934 25.9122 23.3918C25.9661 23.4902 26.047 23.5687 26.1548 23.6273C26.2649 23.6836 26.3997 23.7117 26.5591 23.7117C26.7583 23.7117 26.9341 23.6695 27.0864 23.5852C27.2388 23.5008 27.3595 23.3977 27.4485 23.2758C27.5399 23.1539 27.5892 23.0355 27.5962 22.9207L27.8739 23.2336C27.8575 23.332 27.813 23.441 27.7403 23.5605C27.6677 23.6801 27.5704 23.7949 27.4485 23.9051C27.329 24.0129 27.186 24.1031 27.0196 24.1758C26.8556 24.2461 26.6704 24.2813 26.4642 24.2813C26.2063 24.2813 25.9802 24.2309 25.7856 24.1301C25.5935 24.0293 25.4435 23.8945 25.3356 23.7258C25.2302 23.5547 25.1774 23.3637 25.1774 23.1527C25.1774 22.9488 25.2173 22.7695 25.297 22.6148C25.3767 22.4578 25.4915 22.3277 25.6415 22.2246C25.7915 22.1191 25.972 22.0395 26.1829 21.9855C26.3938 21.9316 26.6294 21.9047 26.8896 21.9047H27.6454ZM31.604 23.4727V18.8109H32.2579V24.2109H31.6603L31.604 23.4727ZM29.0446 22.3512V22.2773C29.0446 21.9867 29.0798 21.723 29.1501 21.4863C29.2228 21.2473 29.3247 21.0422 29.456 20.8711C29.5896 20.7 29.7478 20.5687 29.9306 20.4773C30.1157 20.3836 30.322 20.3367 30.5493 20.3367C30.7884 20.3367 30.997 20.3789 31.1751 20.4633C31.3556 20.5453 31.5079 20.666 31.6321 20.8254C31.7587 20.9824 31.8583 21.1723 31.931 21.3949C32.0036 21.6176 32.054 21.8695 32.0821 22.1508V22.4742C32.0564 22.7531 32.006 23.0039 31.931 23.2266C31.8583 23.4492 31.7587 23.6391 31.6321 23.7961C31.5079 23.9531 31.3556 24.0738 31.1751 24.1582C30.9946 24.2402 30.7837 24.2813 30.5423 24.2813C30.3196 24.2813 30.1157 24.2332 29.9306 24.1371C29.7478 24.041 29.5896 23.9062 29.456 23.7328C29.3247 23.5594 29.2228 23.3555 29.1501 23.1211C29.0798 22.8844 29.0446 22.6277 29.0446 22.3512ZM29.6985 22.2773V22.3512C29.6985 22.541 29.7173 22.7191 29.7548 22.8855C29.7946 23.052 29.8556 23.1984 29.9376 23.325C30.0196 23.4516 30.1239 23.5512 30.2505 23.6238C30.3771 23.6941 30.5282 23.7293 30.704 23.7293C30.9196 23.7293 31.0966 23.6836 31.2349 23.5922C31.3755 23.5008 31.488 23.3801 31.5724 23.2301C31.6567 23.0801 31.7224 22.9172 31.7692 22.7414V21.8941C31.7411 21.7652 31.7001 21.641 31.6462 21.5215C31.5946 21.3996 31.5267 21.2918 31.4423 21.198C31.3603 21.102 31.2583 21.0258 31.1364 20.9695C31.0169 20.9133 30.8751 20.8852 30.711 20.8852C30.5329 20.8852 30.3794 20.9227 30.2505 20.9977C30.1239 21.0703 30.0196 21.1711 29.9376 21.3C29.8556 21.4266 29.7946 21.5742 29.7548 21.743C29.7173 21.9094 29.6985 22.0875 29.6985 22.2773Z" fill="#4B91E1"/>
<path d="M27.6528 6.48966C27.0909 3.23352 24.5871 0.789062 21.5792 0.789062C19.1911 0.789062 17.117 2.33691 16.084 4.60204C13.5967 4.90406 11.6631 7.31077 11.6631 10.2271C11.6631 13.3511 13.886 15.89 16.6211 15.89H27.3636C29.6443 15.89 31.4953 13.7759 31.4953 11.1709C31.4953 8.67929 29.8013 6.65954 27.6528 6.48966ZM23.2319 9.28333V13.0586H19.9265V9.28333H17.4475L21.5792 4.56429L25.7109 9.28333H23.2319Z" fill="#4B91E1"/>
</svg>
