<svg width="67" height="67" viewBox="0 0 67 67" fill="none" xmlns="http://www.w3.org/2000/svg">
<rect x="3.5" y="3.76562" width="60" height="60" rx="30" fill="#4B91E1"/>
<rect x="3.5" y="3.76562" width="60" height="60" rx="30" stroke="white" stroke-width="6"/>
<path d="M33.5 15.7656C43.4414 15.7656 51.5 23.8242 51.5 33.7656C51.5 43.707 43.4414 51.7656 33.5 51.7656C23.5586 51.7656 15.5 43.707 15.5 33.7656C15.5 23.8242 23.5586 15.7656 33.5 15.7656ZM33.5 19.3656C29.6809 19.3656 26.0182 20.8828 23.3177 23.5833C20.6171 26.2838 19.1 29.9465 19.1 33.7656C19.1 37.5847 20.6171 41.2474 23.3177 43.948C26.0182 46.6485 29.6809 48.1656 33.5 48.1656C37.3191 48.1656 40.9818 46.6485 43.6823 43.948C46.3829 41.2474 47.9 37.5847 47.9 33.7656C47.9 29.9465 46.3829 26.2838 43.6823 23.5833C40.9818 20.8828 37.3191 19.3656 33.5 19.3656ZM33.5 22.9656C33.9409 22.9657 34.3664 23.1275 34.6959 23.4205C35.0253 23.7135 35.2358 24.1172 35.2874 24.555L35.3 24.7656V33.0204L40.1726 37.893C40.4954 38.2169 40.6829 38.6516 40.6968 39.1087C40.7108 39.5658 40.5502 40.0111 40.2478 40.3541C39.9453 40.6971 39.5236 40.9122 39.0683 40.9555C38.6131 40.9989 38.1584 40.8674 37.7966 40.5876L37.6274 40.4382L32.2274 35.0382C31.9476 34.7582 31.768 34.3938 31.7162 34.0014L31.7 33.7656V24.7656C31.7 24.2882 31.8896 23.8304 32.2272 23.4928C32.5648 23.1553 33.0226 22.9656 33.5 22.9656Z" fill="white"/>
</svg>
