<svg width="18" height="18" viewBox="0 0 18 18" fill="none" xmlns="http://www.w3.org/2000/svg">
<rect x="1.3208" y="1.11133" width="15.5862" height="15.5862" rx="7.79309" fill="#4B91E1"/>
<rect x="1.3208" y="1.11133" width="15.5862" height="15.5862" rx="7.79309" stroke="white" stroke-width="1.55862"/>
<path d="M8.9182 10.1873C8.61384 10.4917 8.12033 10.4917 7.81599 10.1873L6.86398 9.23504C6.69801 9.06903 6.69803 8.79991 6.86402 8.63393C7.03 8.46794 7.2991 8.46792 7.46511 8.63387L8.36708 9.53552L10.4706 7.43165C10.6367 7.26553 10.906 7.26552 11.0721 7.43163C11.2382 7.59771 11.2382 7.86699 11.0721 8.03308L8.9182 10.1873Z" fill="white"/>
<path fill-rule="evenodd" clip-rule="evenodd" d="M4.43811 8.90437C4.43811 6.32202 6.53162 4.22852 9.11397 4.22852C11.6963 4.22852 13.7898 6.32202 13.7898 8.90437C13.7898 11.4867 11.6963 13.5802 9.11397 13.5802C6.53162 13.5802 4.43811 11.4867 4.43811 8.90437ZM9.11397 12.7301C8.61157 12.7301 8.11409 12.6311 7.64993 12.4389C7.18578 12.2466 6.76404 11.9648 6.40879 11.6096C6.05354 11.2543 5.77174 10.8326 5.57948 10.3684C5.38722 9.90425 5.28827 9.40677 5.28827 8.90437C5.28827 8.40197 5.38722 7.9045 5.57948 7.44034C5.77174 6.97618 6.05354 6.55444 6.40879 6.19919C6.76404 5.84394 7.18578 5.56214 7.64993 5.36989C8.11409 5.17763 8.61157 5.07867 9.11397 5.07867C10.1286 5.07867 11.1017 5.48174 11.8191 6.19919C12.5366 6.91665 12.9397 7.88973 12.9397 8.90437C12.9397 9.91901 12.5366 10.8921 11.8191 11.6096C11.1017 12.327 10.1286 12.7301 9.11397 12.7301Z" fill="white"/>
</svg>
