<svg width="19" height="20" viewBox="0 0 19 20" fill="none" xmlns="http://www.w3.org/2000/svg">
<path d="M0.75 17.9813V7.11625C0.75 6.79625 0.821667 6.49333 0.965 6.2075C1.10833 5.92167 1.30583 5.68625 1.5575 5.50125L8.28875 0.403751C8.64125 0.134584 9.04375 0 9.49625 0C9.94875 0 10.3538 0.134584 10.7113 0.403751L17.4425 5.5C17.695 5.685 17.8925 5.92083 18.035 6.2075C18.1783 6.49333 18.25 6.79625 18.25 7.11625V17.9813C18.25 18.3162 18.1254 18.6083 17.8763 18.8575C17.6271 19.1067 17.335 19.2313 17 19.2313H12.77C12.4833 19.2313 12.2433 19.1346 12.05 18.9412C11.8567 18.7471 11.76 18.5071 11.76 18.2212V12.26C11.76 11.9742 11.6633 11.7346 11.47 11.5413C11.2758 11.3471 11.0358 11.25 10.75 11.25H8.25C7.96417 11.25 7.72458 11.3471 7.53125 11.5413C7.33708 11.7346 7.24 11.9742 7.24 12.26V18.2225C7.24 18.5083 7.14333 18.7479 6.95 18.9412C6.75667 19.1346 6.51708 19.2313 6.23125 19.2313H2C1.665 19.2313 1.37292 19.1067 1.12375 18.8575C0.874583 18.6083 0.75 18.3162 0.75 17.9813Z" fill="#4A90E2"/>
</svg>
