<svg width="19" height="19" viewBox="0 0 19 19" fill="none" xmlns="http://www.w3.org/2000/svg">
<path d="M16.5 14.6152H2.5C1.397 14.6152 0.5 15.5122 0.5 16.6152C0.5 17.7182 1.397 18.6152 2.5 18.6152H16.5C17.603 18.6152 18.5 17.7182 18.5 16.6152C18.5 15.5122 17.603 14.6152 16.5 14.6152ZM16.5 7.61523H2.5C1.397 7.61523 0.5 8.51223 0.5 9.61523C0.5 10.7182 1.397 11.6152 2.5 11.6152H16.5C17.603 11.6152 18.5 10.7182 18.5 9.61523C18.5 8.51223 17.603 7.61523 16.5 7.61523ZM16.5 0.615234H2.5C1.397 0.615234 0.5 1.51223 0.5 2.61523C0.5 3.71823 1.397 4.61523 2.5 4.61523H16.5C17.603 4.61523 18.5 3.71823 18.5 2.61523C18.5 1.51223 17.603 0.615234 16.5 0.615234Z" fill="#333333" fill-opacity="0.3"/>
</svg>
