<svg width="21" height="21" viewBox="0 0 21 21" fill="none" xmlns="http://www.w3.org/2000/svg">
<path fill-rule="evenodd" clip-rule="evenodd" d="M2.069 2.50123C2.29162 1.94458 2.67592 1.46739 3.17233 1.13122C3.66874 0.795058 4.25448 0.615334 4.854 0.615234H16.146C16.7455 0.615334 17.3313 0.795058 17.8277 1.13122C18.3241 1.46739 18.7084 1.94458 18.931 2.50123L19.826 4.73723C20.0815 5.37636 20.1094 6.08391 19.9051 6.74119C19.7009 7.39848 19.2768 7.96553 18.704 8.34723L18.5 8.48523V18.6152H19.5C19.7652 18.6152 20.0196 18.7206 20.2071 18.9081C20.3946 19.0957 20.5 19.35 20.5 19.6152C20.5 19.8805 20.3946 20.1348 20.2071 20.3223C20.0196 20.5099 19.7652 20.6152 19.5 20.6152H1.5C1.23478 20.6152 0.98043 20.5099 0.792893 20.3223C0.605357 20.1348 0.5 19.8805 0.5 19.6152C0.5 19.35 0.605357 19.0957 0.792893 18.9081C0.98043 18.7206 1.23478 18.6152 1.5 18.6152H2.5V8.48423L2.296 8.34723C1.72323 7.96553 1.29914 7.39848 1.09485 6.74119C0.890566 6.08391 0.918511 5.37636 1.174 4.73723L2.069 2.50123ZM4.5 9.21123V18.6152H7.5V14.6152C7.5 13.8196 7.81607 13.0565 8.37868 12.4939C8.94129 11.9313 9.70435 11.6152 10.5 11.6152C11.2956 11.6152 12.0587 11.9313 12.6213 12.4939C13.1839 13.0565 13.5 13.8196 13.5 14.6152V18.6152H16.5V9.21123C15.92 9.21123 15.34 9.04323 14.836 8.70723L13.5 7.81723L12.164 8.70723C11.6712 9.03573 11.0922 9.21102 10.5 9.21102C9.90777 9.21102 9.32878 9.03573 8.836 8.70723L7.5 7.81723L6.164 8.70723C5.67124 9.0358 5.09226 9.21117 4.5 9.21123ZM11.5 18.6152V14.6152C11.5 14.35 11.3946 14.0957 11.2071 13.9081C11.0196 13.7206 10.7652 13.6152 10.5 13.6152C10.2348 13.6152 9.98043 13.7206 9.79289 13.9081C9.60536 14.0957 9.5 14.35 9.5 14.6152V18.6152H11.5Z" fill="#333333" fill-opacity="0.3"/>
</svg>
