<svg width="19" height="19" viewBox="0 0 19 19" fill="none" xmlns="http://www.w3.org/2000/svg">
<path d="M16.554 14.4831H9.74309C8.66989 14.4831 7.79712 15.3559 7.79712 16.4291C7.79712 17.5023 8.66989 18.3751 9.74309 18.3751H16.554C17.6272 18.3751 18.5 17.5023 18.5 16.4291C18.5 15.3559 17.6272 14.4831 16.554 14.4831ZM16.554 7.67222H9.74309C8.66989 7.67222 7.79712 8.54499 7.79712 9.6182C7.79712 10.6914 8.66989 11.5642 9.74309 11.5642H16.554C17.6272 11.5642 18.5 10.6914 18.5 9.6182C18.5 8.54499 17.6272 7.67222 16.554 7.67222ZM16.554 0.861328H9.74309C8.66989 0.861328 7.79712 1.7341 7.79712 2.8073C7.79712 3.8805 8.66989 4.75327 9.74309 4.75327H16.554C17.6272 4.75327 18.5 3.8805 18.5 2.8073C18.5 1.7341 17.6272 0.861328 16.554 0.861328Z" fill="#333333"/>
<path d="M2.93246 18.8591C4.27588 18.8591 5.36493 17.77 5.36493 16.4266C5.36493 15.0832 4.27588 13.9941 2.93246 13.9941C1.58905 13.9941 0.5 15.0832 0.5 16.4266C0.5 17.77 1.58905 18.8591 2.93246 18.8591Z" fill="#333333"/>
<path d="M2.93246 12.0485C4.27588 12.0485 5.36493 10.9595 5.36493 9.61606C5.36493 8.27264 4.27588 7.18359 2.93246 7.18359C1.58905 7.18359 0.5 8.27264 0.5 9.61606C0.5 10.9595 1.58905 12.0485 2.93246 12.0485Z" fill="#333333"/>
<path d="M2.93246 5.23602C4.27588 5.23602 5.36493 4.14697 5.36493 2.80356C5.36493 1.46014 4.27588 0.371094 2.93246 0.371094C1.58905 0.371094 0.5 1.46014 0.5 2.80356C0.5 4.14697 1.58905 5.23602 2.93246 5.23602Z" fill="#333333"/>
</svg>
