<svg width="19" height="19" viewBox="0 0 19 19" fill="none" xmlns="http://www.w3.org/2000/svg">
<path opacity="0.3" d="M9.50027 7.26907L13.017 5.86236L4.30833 2.37888L1.3058 3.57989C1.15169 3.64154 1.00994 3.7236 0.883171 3.82223L9.50027 7.26907ZM0.252064 4.82038C0.225049 4.94241 0.210938 5.06856 0.210938 5.19704V14.0751C0.210938 14.7873 0.64454 15.4277 1.3058 15.6922L7.99077 18.3662C8.29184 18.4866 8.60373 18.5697 8.9197 18.6152V8.28744L0.252064 4.82038ZM10.0808 18.6152C10.3967 18.5696 10.7085 18.4866 11.0094 18.3662L17.6944 15.6922C18.3557 15.4277 18.7893 14.7873 18.7893 14.0751V5.19704C18.7893 5.0686 18.7752 4.94249 18.7482 4.82051L10.0808 8.28744V18.6152ZM18.1172 3.82232L14.5803 5.23707L5.87157 1.75358L7.99077 0.905906C8.95967 0.518344 10.0405 0.518344 11.0094 0.905906L17.6944 3.57989C17.8486 3.64156 17.9903 3.72365 18.1172 3.82232Z" fill="#333333"/>
</svg>
