<svg width="16" height="17" viewBox="0 0 16 17" fill="none" xmlns="http://www.w3.org/2000/svg">
<path d="M7.67866 0.597656C4.04371 0.597656 1.09698 3.35146 1.09698 6.74845V10.4244L0.321319 11.1492C0.00759134 11.4424 -0.0862528 11.8833 0.0835332 12.2664C0.253319 12.6495 0.653311 12.8993 1.09698 12.8993H14.2604C14.7041 12.8993 15.104 12.6495 15.2738 12.2664C15.4436 11.8833 15.3497 11.4424 15.036 11.1492L14.2604 10.4244V6.74845C14.2604 3.35146 11.3136 0.597656 7.67866 0.597656Z" fill="#D9D9D9"/>
<path d="M7.67904 16.9992C5.86155 16.9992 4.38818 15.6224 4.38818 13.9238H10.9699C10.9699 15.6224 9.49657 16.9992 7.67904 16.9992Z" fill="#D9D9D9"/>
</svg>
