<svg width="15" height="15" viewBox="0 0 15 15" fill="none" xmlns="http://www.w3.org/2000/svg">
<path d="M7.35734 14.9996C6.0336 14.6194 4.77562 14.2594 3.52004 13.8959C1.9942 13.4547 1.99301 13.4535 1.9942 11.887C1.9954 11.0523 1.99899 10.2176 2.00377 9.38178C2.00377 9.34471 2.02529 9.30644 2.06356 9.17969C2.54068 9.34471 3.0178 9.50734 3.49253 9.67475C4.09282 9.88521 4.70985 10.0598 5.28503 10.3253C5.84227 10.5824 6.25721 10.4927 6.65183 10.0466C6.8288 9.84575 7.06437 9.69747 7.35615 9.45592C7.35734 11.3477 7.35734 13.1198 7.35734 14.9996Z" fill="#333333"/>
<path d="M7.87842 9.49283C8.0829 9.64111 8.2527 9.71524 8.35195 9.84439C8.91517 10.575 9.5621 10.526 10.3394 10.1912C11.247 9.80015 12.2012 9.51913 13.2511 9.14844C13.2511 9.89222 13.2511 10.5547 13.2511 11.2172C13.2511 11.8342 13.2679 12.4512 13.2392 13.0659C13.232 13.2237 13.1124 13.4772 12.9928 13.5131C11.3367 14.007 9.67092 14.4709 8.00637 14.9385C7.97528 14.9469 7.93342 14.917 7.87842 14.899C7.87842 13.1304 7.87842 11.3547 7.87842 9.49283Z" fill="#333333"/>
<path d="M11.2351 6.58097C11.5664 6.68141 12.0495 6.8285 12.5338 6.97438C12.5398 7.01863 12.5445 7.06287 12.5505 7.10592C12.2839 7.1956 12.0184 7.28888 11.7505 7.37617C10.5213 7.77676 9.29317 8.18333 8.05911 8.56838C7.84267 8.63534 7.57721 8.68437 7.37153 8.62099C5.8146 8.13909 4.26725 7.62729 2.69238 7.00189C3.17548 6.84404 3.65739 6.68739 4.13332 6.53194C4.24931 6.79382 4.31986 7.17886 4.44661 7.198C4.90939 7.26974 5.39608 7.24942 5.86363 7.19082C5.94853 7.18006 6.06453 6.82012 6.03941 6.63956C5.96049 6.06438 6.20204 5.81805 6.74732 5.70804C7.22923 5.61118 7.66091 5.43779 8.19304 5.59922C8.86388 5.8025 9.38166 5.99742 9.21306 6.85719C9.19273 6.96123 9.44026 7.20876 9.59093 7.23626C9.91857 7.29605 10.2881 7.32953 10.5942 7.23148C10.8178 7.16212 10.9697 6.86437 11.2351 6.58097Z" fill="#333333"/>
<path d="M7.18037 9.01977C6.75825 9.38329 6.42463 9.68463 6.07187 9.96206C5.99414 10.0242 5.83749 10.0493 5.74183 10.0159C4.24947 9.49809 2.75951 8.96955 1.2002 8.41828C1.40228 8.08227 1.54458 7.80006 1.73232 7.55372C1.80646 7.45567 2.00736 7.35881 2.1102 7.3911C3.76757 7.91007 5.42016 8.44937 7.18037 9.01977Z" fill="#333333"/>
<path d="M8.05176 9.02106C9.80958 8.45066 11.4454 7.91375 13.0861 7.39717C13.1985 7.36129 13.4125 7.42228 13.4819 7.51196C13.6828 7.77384 13.8334 8.07279 14.0391 8.41479C12.4941 8.96246 11.0233 9.49339 9.54291 9.99443C9.40061 10.0423 9.16385 9.94062 9.02155 9.83778C8.71542 9.62134 8.44398 9.35827 8.05176 9.02106Z" fill="#333333"/>
<path d="M8.82666 1.88326C9.29182 1.19089 9.66252 0.637239 10.0858 0.00585938C10.5199 0.64561 10.9026 1.21003 11.3629 1.88924C10.557 1.7565 10.557 2.16905 10.5642 2.65215C10.5845 4.01895 10.5713 5.38694 10.5713 6.78721C10.2341 6.78721 9.96625 6.78721 9.61947 6.78721C9.61947 5.65599 9.61947 4.54869 9.61947 3.44138C9.61947 3.16276 9.60154 2.88294 9.62306 2.60671C9.66133 2.12122 9.57523 1.76368 8.82666 1.88326Z" fill="#333333"/>
<path d="M5.62071 6.7981C5.27513 6.7981 5.02162 6.7981 4.6868 6.7981C4.6868 5.18138 4.6868 3.5826 4.6868 1.95871C4.42372 1.91447 4.23598 1.88218 3.92627 1.82957C4.32806 1.23047 4.70354 0.66845 5.15196 0C5.57766 0.636163 5.95195 1.1958 6.39439 1.85587C5.63506 1.77456 5.60397 2.18113 5.61354 2.68695C5.63626 4.03342 5.62071 5.38228 5.62071 6.7981Z" fill="#333333"/>
</svg>
