<svg width="14" height="14" viewBox="0 0 14 14" fill="none" xmlns="http://www.w3.org/2000/svg">
<path d="M2.27648 3.02886C2.27648 2.59366 2.62442 2.24572 3.05962 2.24572H7.08718C7.52238 2.24572 7.87032 2.59366 7.87032 3.02886V3.36449C7.87032 3.43795 7.88479 3.51069 7.9129 3.57856C7.94101 3.64642 7.98221 3.70809 8.03416 3.76003C8.0861 3.81198 8.14777 3.85318 8.21563 3.88129C8.2835 3.9094 8.35624 3.92387 8.4297 3.92387C8.50316 3.92387 8.5759 3.9094 8.64377 3.88129C8.71163 3.85318 8.7733 3.81198 8.82524 3.76003C8.87719 3.70809 8.91839 3.64642 8.9465 3.57856C8.97461 3.51069 8.98908 3.43795 8.98908 3.36449V3.02886C8.98908 1.9761 8.13994 1.12696 7.08718 1.12696H3.05962C2.80974 1.12651 2.56222 1.17541 2.33127 1.27083C2.10032 1.36625 1.89048 1.50633 1.71379 1.68302C1.53709 1.85972 1.39701 2.06956 1.30159 2.30051C1.20617 2.53146 1.15728 2.77897 1.15772 3.02886V7.05642C1.15772 8.10918 2.00686 8.95832 3.05962 8.95832H3.39525C3.54361 8.95832 3.68589 8.89939 3.79079 8.79448C3.8957 8.68958 3.95463 8.5473 3.95463 8.39894C3.95463 8.25058 3.8957 8.1083 3.79079 8.00339C3.68589 7.89849 3.54361 7.83955 3.39525 7.83955H3.05962C2.62442 7.83955 2.27648 7.49162 2.27648 7.05642V3.02886Z" fill="black"/>
<path d="M5.07324 6.38549C5.07324 6.02943 5.21469 5.68796 5.46646 5.43618C5.71823 5.18441 6.0597 5.04297 6.41576 5.04297H10.4433C10.7994 5.04297 11.1409 5.18441 11.3926 5.43618C11.6444 5.68796 11.7858 6.02943 11.7858 6.38549V10.413C11.7858 10.7691 11.6444 11.1106 11.3926 11.3624C11.1409 11.6141 10.7994 11.7556 10.4433 11.7556H6.41576C6.0597 11.7556 5.71823 11.6141 5.46646 11.3624C5.21469 11.1106 5.07324 10.7691 5.07324 10.413V6.38549Z" fill="black"/>
</svg>
