<svg width="20" height="20" viewBox="0 0 20 20" fill="none" xmlns="http://www.w3.org/2000/svg">
<rect y="0.873047" width="19.0881" height="19.0881" rx="9.54403" fill="#4A90E2" fill-opacity="0.2"/>
<g clip-path="url(#clip0_4570_28342)">
<path d="M9.15625 8.5957C8.72725 8.71304 8.46875 9.04258 8.46875 9.35333C8.46875 9.66408 8.72725 9.99362 9.15625 10.1105V8.5957ZM9.84375 10.8878V12.4022C10.2728 12.2853 10.5312 11.9557 10.5312 11.645C10.5312 11.3342 10.2728 11.0047 9.84375 10.8878Z" fill="#4A90E2"/>
<path fill-rule="evenodd" clip-rule="evenodd" d="M14.0834 10.4993C14.0834 13.0307 12.0315 15.0827 9.50008 15.0827C6.96871 15.0827 4.91675 13.0307 4.91675 10.4993C4.91675 7.96797 6.96871 5.91602 9.50008 5.91602C12.0315 5.91602 14.0834 7.96797 14.0834 10.4993ZM9.50008 7.4056C9.59125 7.4056 9.67868 7.44182 9.74315 7.50628C9.80761 7.57075 9.84383 7.65818 9.84383 7.74935V7.89464C10.5909 8.02847 11.2188 8.58993 11.2188 9.35352C11.2188 9.44468 11.1826 9.53212 11.1181 9.59658C11.0537 9.66105 10.9662 9.69727 10.8751 9.69727C10.7839 9.69727 10.6965 9.66105 10.632 9.59658C10.5675 9.53212 10.5313 9.44468 10.5313 9.35352C10.5313 9.04277 10.2728 8.71322 9.84383 8.59589V10.1863C10.5909 10.3201 11.2188 10.8816 11.2188 11.6452C11.2188 12.4088 10.5909 12.9702 9.84383 13.1041V13.2493C9.84383 13.3405 9.80761 13.428 9.74315 13.4924C9.67868 13.5569 9.59125 13.5931 9.50008 13.5931C9.40891 13.5931 9.32148 13.5569 9.25701 13.4924C9.19255 13.428 9.15633 13.3405 9.15633 13.2493V13.1041C8.40925 12.9702 7.78133 12.4088 7.78133 11.6452C7.78133 11.554 7.81755 11.4666 7.88201 11.4021C7.94648 11.3376 8.03391 11.3014 8.12508 11.3014C8.21625 11.3014 8.30368 11.3376 8.36815 11.4021C8.43261 11.4666 8.46883 11.554 8.46883 11.6452C8.46883 11.9559 8.72733 12.2855 9.15633 12.4023V10.8124C8.40925 10.6786 7.78133 10.1171 7.78133 9.35352C7.78133 8.58993 8.40925 8.02847 9.15633 7.89464V7.74935C9.15633 7.65818 9.19255 7.57075 9.25701 7.50628C9.32148 7.44182 9.40891 7.4056 9.50008 7.4056Z" fill="#4A90E2"/>
</g>
<defs>
<clipPath id="clip0_4570_28342">
<rect width="11" height="11" fill="white" transform="translate(4 5)"/>
</clipPath>
</defs>
</svg>
