<svg width="20" height="20" viewBox="0 0 20 20" fill="none" xmlns="http://www.w3.org/2000/svg">
<path d="M3.3335 16.6673V14.5673L14.3168 3.574C14.4029 3.49789 14.4974 3.439 14.6002 3.39733C14.7029 3.35566 14.8104 3.33455 14.9227 3.334C15.0349 3.33344 15.1432 3.35122 15.2477 3.38733C15.3532 3.42233 15.4504 3.48566 15.5393 3.57733L16.4285 4.47233C16.5202 4.56066 16.5829 4.65789 16.6168 4.764C16.6502 4.86955 16.6668 4.97511 16.6668 5.08066C16.6668 5.194 16.6479 5.30233 16.6102 5.40566C16.5718 5.50844 16.5113 5.60261 16.4285 5.68816L5.43266 16.6673H3.3335ZM14.5868 6.32483L15.8335 5.09316L14.9077 4.16733L13.6768 5.414L14.5868 6.32483Z" fill="#333333"/>
</svg>
