<svg width="24" height="24" viewBox="0 0 24 24" fill="none" xmlns="http://www.w3.org/2000/svg">
<circle cx="12" cy="12" r="12" fill="#EAA96F" fill-opacity="0.06"/>
<path d="M11.8332 10.2658C11.3148 10.2658 10.8176 10.4717 10.4511 10.8383C10.0845 11.2048 9.87863 11.702 9.87863 12.2203C9.87863 12.7387 10.0845 13.2359 10.4511 13.6024C10.8176 13.969 11.3148 14.1749 11.8332 14.1749C12.3515 14.1749 12.8487 13.969 13.2152 13.6024C13.5818 13.2359 13.7877 12.7387 13.7877 12.2203C13.7877 11.702 13.5818 11.2048 13.2152 10.8383C12.8487 10.4717 12.3515 10.2658 11.8332 10.2658ZM11.8332 15.4779C10.9692 15.4779 10.1406 15.1347 9.52972 14.5238C8.9188 13.9129 8.57559 13.0843 8.57559 12.2203C8.57559 11.3564 8.9188 10.5278 9.52972 9.91689C10.1406 9.30598 10.9692 8.96277 11.8332 8.96277C12.6971 8.96277 13.5257 9.30598 14.1366 9.91689C14.7475 10.5278 15.0907 11.3564 15.0907 12.2203C15.0907 13.0843 14.7475 13.9129 14.1366 14.5238C13.5257 15.1347 12.6971 15.4779 11.8332 15.4779ZM11.8332 7.33398C8.57559 7.33398 5.79363 9.3602 4.6665 12.2203C5.79363 15.0805 8.57559 17.1067 11.8332 17.1067C15.0907 17.1067 17.8727 15.0805 18.9998 12.2203C17.8727 9.3602 15.0907 7.33398 11.8332 7.33398Z" fill="#EAA96F"/>
</svg>
