<svg width="15" height="15" viewBox="0 0 15 15" fill="none" xmlns="http://www.w3.org/2000/svg">
<path d="M10.662 1.5C11.0419 1.49996 11.4076 1.62978 11.6853 1.86324C11.963 2.09669 12.1319 2.41637 12.1579 2.75766L12.1612 2.84946V8.92654C12.0808 8.97454 12.0051 9.03054 11.934 9.09454L9.66249 11.1394L9.05746 10.5934C8.79149 10.3531 8.43445 10.2123 8.05798 10.1992H9.66249C9.79503 10.1992 9.92214 10.1518 10.0159 10.0674C10.1096 9.98299 10.1622 9.86853 10.1622 9.74917C10.1622 9.62982 10.1096 9.51536 10.0159 9.43096C9.92214 9.34657 9.79503 9.29915 9.66249 9.29915H6.32819C6.19565 9.29915 6.06854 9.34657 5.97482 9.43096C5.8811 9.51536 5.82845 9.62982 5.82845 9.74917C5.82845 9.86853 5.8811 9.98299 5.97482 10.0674C6.06854 10.1518 6.19565 10.1992 6.32819 10.1992H7.93604C7.64494 10.2098 7.36359 10.2966 7.12637 10.4489C6.88916 10.6012 6.70637 10.8125 6.60034 11.0568C6.49431 11.3012 6.46965 11.5681 6.52936 11.8248C6.58906 12.0816 6.73056 12.3172 6.93655 12.5027L8.04198 13.4987H2.99923C2.61934 13.4988 2.2536 13.369 1.97592 13.1355C1.69824 12.9021 1.52933 12.5824 1.50333 12.2411L1.5 12.1499V2.85006C1.49995 2.50797 1.64412 2.17862 1.90337 1.92857C2.16262 1.67852 2.51762 1.52641 2.89662 1.503L2.99923 1.5H10.662ZM4.83163 4.95016C4.83163 4.79102 4.76143 4.6384 4.63647 4.52587C4.5115 4.41335 4.34202 4.35013 4.1653 4.35013C3.98858 4.35013 3.8191 4.41335 3.69414 4.52587C3.56918 4.6384 3.49898 4.79102 3.49898 4.95016C3.49898 5.10929 3.56918 5.26191 3.69414 5.37444C3.8191 5.48697 3.98858 5.55018 4.1653 5.55018C4.34202 5.55018 4.5115 5.48697 4.63647 5.37444C4.76143 5.26191 4.83163 5.10929 4.83163 4.95016ZM6.32819 4.49954C6.19565 4.49954 6.06854 4.54695 5.97482 4.63134C5.8811 4.71574 5.82845 4.8302 5.82845 4.94956C5.82845 5.06891 5.8811 5.18337 5.97482 5.26777C6.06854 5.35216 6.19565 5.39958 6.32819 5.39958H9.66249C9.79503 5.39958 9.92214 5.35216 10.0159 5.26777C10.1096 5.18337 10.1622 5.06891 10.1622 4.94956C10.1622 4.8302 10.1096 4.71574 10.0159 4.63134C9.92214 4.54695 9.79503 4.49954 9.66249 4.49954H6.32819ZM5.82845 7.34967C5.82845 7.59808 6.05234 7.79969 6.32819 7.79969H9.66249C9.72812 7.79969 9.7931 7.78805 9.85373 7.76543C9.91436 7.74281 9.96945 7.70967 10.0159 7.66788C10.0623 7.62609 10.0991 7.57648 10.1242 7.52188C10.1493 7.46728 10.1622 7.40876 10.1622 7.34967C10.1622 7.29057 10.1493 7.23205 10.1242 7.17745C10.0991 7.12285 10.0623 7.07324 10.0159 7.03145C9.96945 6.98967 9.91436 6.95652 9.85373 6.9339C9.7931 6.91129 9.72812 6.89965 9.66249 6.89965H6.32819C6.19565 6.89965 6.06854 6.94706 5.97482 7.03145C5.8811 7.11585 5.82845 7.23031 5.82845 7.34967ZM4.83163 7.34967C4.83163 7.19053 4.76143 7.03791 4.63647 6.92538C4.5115 6.81286 4.34202 6.74964 4.1653 6.74964C3.98858 6.74964 3.8191 6.81286 3.69414 6.92538C3.56918 7.03791 3.49898 7.19053 3.49898 7.34967C3.49898 7.5088 3.56918 7.66142 3.69414 7.77395C3.8191 7.88648 3.98858 7.94969 4.1653 7.94969C4.34202 7.94969 4.5115 7.88648 4.63647 7.77395C4.76143 7.66142 4.83163 7.5088 4.83163 7.34967ZM4.83163 9.74857C4.83163 9.58944 4.76143 9.43682 4.63647 9.32429C4.5115 9.21176 4.34202 9.14855 4.1653 9.14855C3.98858 9.14855 3.8191 9.21176 3.69414 9.32429C3.56918 9.43682 3.49898 9.58944 3.49898 9.74857C3.49898 9.90771 3.56918 10.0603 3.69414 10.1729C3.8191 10.2854 3.98858 10.3486 4.1653 10.3486C4.34202 10.3486 4.5115 10.2854 4.63647 10.1729C4.76143 10.0603 4.83163 9.90771 4.83163 9.74857ZM9.66249 12.4133L12.641 9.73117C12.6871 9.68821 12.7422 9.65395 12.8032 9.63039C12.8642 9.60683 12.9298 9.59445 12.9962 9.59396C13.0625 9.59347 13.1283 9.60488 13.1897 9.62753C13.2511 9.65019 13.3069 9.68363 13.3538 9.7259C13.4007 9.76817 13.4378 9.81843 13.4629 9.87375C13.488 9.92907 13.5006 9.98833 13.5 10.0481C13.4994 10.1078 13.4856 10.1669 13.4593 10.2218C13.4331 10.2767 13.395 10.3263 13.3473 10.3678L10.0156 13.3679L9.98166 13.3961C9.88578 13.4679 9.7636 13.5047 9.63909 13.4995C9.51458 13.4943 9.39673 13.4474 9.30867 13.3679L7.64285 11.8673C7.54919 11.7828 7.49664 11.6682 7.49677 11.5488C7.49689 11.4294 7.54968 11.315 7.64352 11.2306C7.73736 11.1463 7.86456 11.099 7.99714 11.0991C8.12973 11.0992 8.25683 11.1467 8.35049 11.2312L9.66249 12.4133Z" fill="#333333"/>
</svg>
