<svg width="20" height="21" viewBox="0 0 20 21" fill="none" xmlns="http://www.w3.org/2000/svg">
<rect y="1" width="19.0881" height="19.0881" rx="9.54403" fill="#4A90E2" fill-opacity="0.2"/>
<path d="M12.8579 12.8162H9.61577C9.10491 12.8162 8.68945 13.2317 8.68945 13.7426C8.68945 14.2534 9.10491 14.6689 9.61577 14.6689H12.8579C13.3687 14.6689 13.7842 14.2534 13.7842 13.7426C13.7842 13.2317 13.3687 12.8162 12.8579 12.8162ZM12.8579 9.57414H9.61577C9.10491 9.57414 8.68945 9.98959 8.68945 10.5005C8.68945 11.0113 9.10491 11.4268 9.61577 11.4268H12.8579C13.3687 11.4268 13.7842 11.0113 13.7842 10.5005C13.7842 9.98959 13.3687 9.57414 12.8579 9.57414ZM12.8579 6.33203H9.61577C9.10491 6.33203 8.68945 6.74748 8.68945 7.25835C8.68945 7.76921 9.10491 8.18466 9.61577 8.18466H12.8579C13.3687 8.18466 13.7842 7.76921 13.7842 7.25835C13.7842 6.74748 13.3687 6.33203 12.8579 6.33203Z" fill="#4A90E2"/>
<path d="M6.37372 14.8998C7.0132 14.8998 7.53161 14.3814 7.53161 13.7419C7.53161 13.1024 7.0132 12.584 6.37372 12.584C5.73423 12.584 5.21582 13.1024 5.21582 13.7419C5.21582 14.3814 5.73423 14.8998 6.37372 14.8998Z" fill="#4A90E2"/>
<path d="M6.37372 11.6576C7.0132 11.6576 7.53161 11.1392 7.53161 10.4997C7.53161 9.8602 7.0132 9.3418 6.37372 9.3418C5.73423 9.3418 5.21582 9.8602 5.21582 10.4997C5.21582 11.1392 5.73423 11.6576 6.37372 11.6576Z" fill="#4A90E2"/>
<path d="M6.37372 8.4154C7.0132 8.4154 7.53161 7.89699 7.53161 7.2575C7.53161 6.61802 7.0132 6.09961 6.37372 6.09961C5.73423 6.09961 5.21582 6.61802 5.21582 7.2575C5.21582 7.89699 5.73423 8.4154 6.37372 8.4154Z" fill="#4A90E2"/>
</svg>
