<svg width="24" height="24" viewBox="0 0 24 24" fill="none" xmlns="http://www.w3.org/2000/svg">
<circle cx="12" cy="12" r="12" fill="#109CF1" fill-opacity="0.06"/>
<path d="M9.6665 18.875C9.27692 18.875 8.94353 18.7364 8.66634 18.4592C8.38914 18.182 8.25031 17.8484 8.24984 17.4583V16.0417H6.83317C6.44359 16.0417 6.1102 15.9031 5.833 15.6259C5.55581 15.3487 5.41698 15.0151 5.4165 14.625V11.7917C5.4165 11.1896 5.6231 10.685 6.0363 10.278C6.44949 9.8709 6.95123 9.66714 7.5415 9.66667H17.4582C18.0603 9.66667 18.5651 9.87043 18.9726 10.278C19.3801 10.6855 19.5836 11.1901 19.5832 11.7917V14.625C19.5832 15.0146 19.4446 15.3482 19.1674 15.6259C18.8902 15.9035 18.5566 16.0421 18.1665 16.0417H16.7498V17.4583C16.7498 17.8479 16.6112 18.1815 16.334 18.4592C16.0569 18.7369 15.7232 18.8755 15.3332 18.875H9.6665ZM16.7498 8.95833H8.24984V7.54167C8.24984 7.15208 8.38867 6.81869 8.66634 6.5415C8.944 6.26431 9.27739 6.12547 9.6665 6.125H15.3332C15.7228 6.125 16.0564 6.26383 16.334 6.5415C16.6117 6.81917 16.7503 7.15256 16.7498 7.54167V8.95833ZM16.7498 12.8542C16.9505 12.8542 17.1189 12.7862 17.2549 12.6502C17.3909 12.5142 17.4586 12.3461 17.4582 12.1458C17.4577 11.9456 17.3897 11.7775 17.2542 11.6415C17.1186 11.5055 16.9505 11.4375 16.7498 11.4375C16.5491 11.4375 16.381 11.5055 16.2455 11.6415C16.11 11.7775 16.042 11.9456 16.0415 12.1458C16.041 12.3461 16.109 12.5144 16.2455 12.6509C16.382 12.7873 16.5501 12.8551 16.7498 12.8542ZM9.6665 17.4583H15.3332V14.625H9.6665V17.4583Z" fill="#4A90E2"/>
</svg>
