<svg width="15" height="15" viewBox="0 0 15 15" fill="none" xmlns="http://www.w3.org/2000/svg">
<path fill-rule="evenodd" clip-rule="evenodd" d="M4.52812 1.25H10.4719C11.1962 1.25 11.5581 1.25 11.8506 1.35188C12.1263 1.44983 12.3757 1.60991 12.5796 1.81974C12.7834 2.02957 12.9363 2.2835 13.0262 2.56187C13.125 2.86312 13.125 3.23562 13.125 3.98125V12.7338C13.125 13.27 12.5094 13.555 12.12 13.1987C12.0108 13.0978 11.8675 13.0418 11.7188 13.0418C11.57 13.0418 11.4267 13.0978 11.3175 13.1987L11.0156 13.475C10.8242 13.652 10.5732 13.7503 10.3125 13.7503C10.0518 13.7503 9.80076 13.652 9.60938 13.475C9.41799 13.298 9.16692 13.1997 8.90625 13.1997C8.64558 13.1997 8.39451 13.298 8.20312 13.475C8.01174 13.652 7.76067 13.7503 7.5 13.7503C7.23933 13.7503 6.98826 13.652 6.79688 13.475C6.60549 13.298 6.35442 13.1997 6.09375 13.1997C5.83308 13.1997 5.582 13.298 5.39062 13.475C5.19925 13.652 4.94817 13.7503 4.6875 13.7503C4.42683 13.7503 4.17575 13.652 3.98438 13.475L3.6825 13.1987C3.57326 13.0978 3.42999 13.0418 3.28125 13.0418C3.13251 13.0418 2.98924 13.0978 2.88 13.1987C2.49062 13.555 1.875 13.27 1.875 12.7338V3.98125C1.875 3.23562 1.875 2.8625 1.97375 2.5625C2.16125 1.99187 2.59563 1.54438 3.14937 1.35188C3.44187 1.25 3.80375 1.25 4.52812 1.25ZM4.375 4.21875C4.25068 4.21875 4.13145 4.26814 4.04354 4.35604C3.95564 4.44395 3.90625 4.56318 3.90625 4.6875C3.90625 4.81182 3.95564 4.93105 4.04354 5.01896C4.13145 5.10686 4.25068 5.15625 4.375 5.15625H4.6875C4.81182 5.15625 4.93105 5.10686 5.01896 5.01896C5.10686 4.93105 5.15625 4.81182 5.15625 4.6875C5.15625 4.56318 5.10686 4.44395 5.01896 4.35604C4.93105 4.26814 4.81182 4.21875 4.6875 4.21875H4.375ZM6.5625 4.21875C6.43818 4.21875 6.31895 4.26814 6.23104 4.35604C6.14314 4.44395 6.09375 4.56318 6.09375 4.6875C6.09375 4.81182 6.14314 4.93105 6.23104 5.01896C6.31895 5.10686 6.43818 5.15625 6.5625 5.15625H10.625C10.7493 5.15625 10.8685 5.10686 10.9565 5.01896C11.0444 4.93105 11.0938 4.81182 11.0938 4.6875C11.0938 4.56318 11.0444 4.44395 10.9565 4.35604C10.8685 4.26814 10.7493 4.21875 10.625 4.21875H6.5625ZM4.375 6.40625C4.25068 6.40625 4.13145 6.45564 4.04354 6.54354C3.95564 6.63145 3.90625 6.75068 3.90625 6.875C3.90625 6.99932 3.95564 7.11855 4.04354 7.20646C4.13145 7.29436 4.25068 7.34375 4.375 7.34375H4.6875C4.81182 7.34375 4.93105 7.29436 5.01896 7.20646C5.10686 7.11855 5.15625 6.99932 5.15625 6.875C5.15625 6.75068 5.10686 6.63145 5.01896 6.54354C4.93105 6.45564 4.81182 6.40625 4.6875 6.40625H4.375ZM6.5625 6.40625C6.43818 6.40625 6.31895 6.45564 6.23104 6.54354C6.14314 6.63145 6.09375 6.75068 6.09375 6.875C6.09375 6.99932 6.14314 7.11855 6.23104 7.20646C6.31895 7.29436 6.43818 7.34375 6.5625 7.34375H10.625C10.7493 7.34375 10.8685 7.29436 10.9565 7.20646C11.0444 7.11855 11.0938 6.99932 11.0938 6.875C11.0938 6.75068 11.0444 6.63145 10.9565 6.54354C10.8685 6.45564 10.7493 6.40625 10.625 6.40625H6.5625ZM4.375 8.59375C4.25068 8.59375 4.13145 8.64314 4.04354 8.73104C3.95564 8.81895 3.90625 8.93818 3.90625 9.0625C3.90625 9.18682 3.95564 9.30605 4.04354 9.39396C4.13145 9.48186 4.25068 9.53125 4.375 9.53125H4.6875C4.81182 9.53125 4.93105 9.48186 5.01896 9.39396C5.10686 9.30605 5.15625 9.18682 5.15625 9.0625C5.15625 8.93818 5.10686 8.81895 5.01896 8.73104C4.93105 8.64314 4.81182 8.59375 4.6875 8.59375H4.375ZM6.5625 8.59375C6.43818 8.59375 6.31895 8.64314 6.23104 8.73104C6.14314 8.81895 6.09375 8.93818 6.09375 9.0625C6.09375 9.18682 6.14314 9.30605 6.23104 9.39396C6.31895 9.48186 6.43818 9.53125 6.5625 9.53125H10.625C10.7493 9.53125 10.8685 9.48186 10.9565 9.39396C11.0444 9.30605 11.0938 9.18682 11.0938 9.0625C11.0938 8.93818 11.0444 8.81895 10.9565 8.73104C10.8685 8.64314 10.7493 8.59375 10.625 8.59375H6.5625Z" fill="#333333"/>
</svg>
