<svg width="15" height="15" viewBox="0 0 15 15" fill="none" xmlns="http://www.w3.org/2000/svg">
<path fill-rule="evenodd" clip-rule="evenodd" d="M1.5 7.5C1.5 4.18629 4.18629 1.5 7.5 1.5C10.8137 1.5 13.5 4.18629 13.5 7.5C13.5 10.8137 10.8137 13.5 7.5 13.5C4.18629 13.5 1.5 10.8137 1.5 7.5ZM7.5 5.7C7.3209 5.7 7.16064 5.77774 7.04982 5.90329C6.83058 6.15173 6.45138 6.17537 6.20296 5.9561C5.95452 5.73682 5.93088 5.35765 6.15016 5.10921C6.4791 4.73652 6.96228 4.5 7.5 4.5C8.49414 4.5 9.3 5.30589 9.3 6.3C9.3 7.08432 8.79882 7.75026 8.1 7.9974V8.1C8.1 8.43138 7.83138 8.7 7.5 8.7C7.16862 8.7 6.9 8.43138 6.9 8.1V7.8C6.9 7.27704 7.31238 6.9672 7.64892 6.88152C7.9086 6.8154 8.1 6.5793 8.1 6.3C8.1 5.96863 7.83138 5.7 7.5 5.7ZM7.5 9.3C7.16862 9.3 6.9 9.56862 6.9 9.9C6.9 10.2314 7.16862 10.5 7.5 10.5H7.506C7.83738 10.5 8.106 10.2314 8.106 9.9C8.106 9.56862 7.83738 9.3 7.506 9.3H7.5Z" fill="#333333"/>
</svg>
