<svg width="20" height="21" viewBox="0 0 20 21" fill="none" xmlns="http://www.w3.org/2000/svg">
<rect y="1" width="19.0881" height="19.0881" rx="9.54403" fill="#4A90E2" fill-opacity="0.2"/>
<path d="M9.80711 9.63432L11.5659 8.93081L7.21054 7.18867L5.70893 7.78931C5.63186 7.82014 5.56097 7.86118 5.49757 7.91051L9.80711 9.63432ZM5.18194 8.4097C5.16843 8.47072 5.16138 8.53381 5.16138 8.59807V13.0381C5.16138 13.3943 5.37823 13.7146 5.70893 13.8469L9.05218 15.1842C9.20275 15.2444 9.35873 15.2859 9.51676 15.3087V10.1436L5.18194 8.4097ZM10.0975 15.3087C10.2554 15.2859 10.4113 15.2444 10.5619 15.1842L13.9051 13.8469C14.2358 13.7146 14.4527 13.3943 14.4527 13.0381V8.59807C14.4527 8.53383 14.4456 8.47077 14.4321 8.40976L10.0975 10.1436V15.3087ZM14.1165 7.91055L12.3477 8.61809L7.99234 6.87595L9.05218 6.45201C9.53675 6.25818 10.0773 6.25818 10.5619 6.45201L13.9051 7.78931C13.9822 7.82015 14.0531 7.8612 14.1165 7.91055Z" fill="#4A90E2"/>
</svg>
