<svg width="15" height="15" viewBox="0 0 15 15" fill="none" xmlns="http://www.w3.org/2000/svg">
<path d="M7.50202 5.86619C7.101 5.86619 6.72548 6.02177 6.44115 6.3061C6.15816 6.59043 6.00124 6.96596 6.00124 7.36697C6.00124 7.76798 6.15816 8.14351 6.44115 8.42784C6.72548 8.71083 7.101 8.86774 7.50202 8.86774C7.90303 8.86774 8.27856 8.71083 8.56289 8.42784C8.84587 8.14351 9.00279 7.76798 9.00279 7.36697C9.00279 6.96596 8.84587 6.59043 8.56289 6.3061C8.42401 6.16616 8.25871 6.05521 8.0766 5.97969C7.89448 5.90417 7.69917 5.86559 7.50202 5.86619ZM13.0317 9.02466L12.1546 8.27494C12.1961 8.02012 12.2176 7.75993 12.2176 7.50109C12.2176 7.24224 12.1961 6.98071 12.1546 6.72723L13.0317 5.97751C13.0979 5.92079 13.1454 5.84524 13.1676 5.76091C13.1899 5.67658 13.186 5.58747 13.1564 5.50542L13.1443 5.47055C12.9029 4.79552 12.5412 4.16982 12.0768 3.62375L12.0526 3.59559C11.9962 3.52927 11.921 3.48159 11.837 3.45885C11.753 3.43611 11.664 3.43936 11.5819 3.46817L10.4928 3.85577C10.0905 3.52584 9.64253 3.26566 9.15703 3.0846L8.94646 1.94594C8.93058 1.86016 8.88896 1.78125 8.82716 1.71968C8.76535 1.65812 8.68628 1.61681 8.60044 1.60126L8.56423 1.59455C7.86682 1.46848 7.13185 1.46848 6.43444 1.59455L6.39823 1.60126C6.31239 1.61681 6.23331 1.65812 6.17151 1.71968C6.1097 1.78125 6.06809 1.86016 6.05221 1.94594L5.8403 3.08996C5.35939 3.27246 4.9114 3.53202 4.51388 3.85846L3.4168 3.46817C3.33467 3.43913 3.24565 3.43576 3.16156 3.45852C3.07748 3.48128 3.00231 3.52908 2.94604 3.59559L2.9219 3.62375C2.45825 4.1704 2.09664 4.79595 1.85433 5.47055L1.84226 5.50542C1.7819 5.67307 1.83153 5.86083 1.96699 5.97751L2.85484 6.73528C2.81327 6.98742 2.79315 7.24492 2.79315 7.49975C2.79315 7.75725 2.81327 8.01476 2.85484 8.26422L1.96967 9.02198C1.90341 9.0787 1.85599 9.15425 1.83371 9.23858C1.81143 9.32291 1.81534 9.41202 1.84494 9.49407L1.85701 9.52894C2.09976 10.2036 2.45786 10.8272 2.92459 11.3757L2.94873 11.4039C3.00513 11.4702 3.0803 11.5179 3.16434 11.5406C3.24837 11.5634 3.33733 11.5601 3.41948 11.5313L4.51656 11.141C4.91623 11.4696 5.3615 11.7298 5.84298 11.9095L6.05489 13.0536C6.07077 13.1393 6.11239 13.2182 6.17419 13.2798C6.236 13.3414 6.31507 13.3827 6.40091 13.3982L6.43712 13.4049C7.14139 13.5317 7.86264 13.5317 8.56691 13.4049L8.60312 13.3982C8.68896 13.3827 8.76804 13.3414 8.82984 13.2798C8.89165 13.2182 8.93326 13.1393 8.94914 13.0536L9.15971 11.9149C9.64521 11.7325 10.0932 11.4736 10.4955 11.1437L11.5846 11.5313C11.6667 11.5604 11.7557 11.5637 11.8398 11.541C11.9239 11.5182 11.999 11.4704 12.0553 11.4039L12.0794 11.3757C12.5462 10.8245 12.9043 10.2036 13.147 9.52894L13.1591 9.49407C13.2168 9.32777 13.1671 9.14134 13.0317 9.02466ZM7.50202 9.72475C6.19974 9.72475 5.14423 8.66925 5.14423 7.36697C5.14423 6.06469 6.19974 5.00918 7.50202 5.00918C8.8043 5.00918 9.8598 6.06469 9.8598 7.36697C9.8598 8.66925 8.8043 9.72475 7.50202 9.72475Z" fill="#333333"/>
</svg>
